HIERARCHY
ROOT Hips
{
	OFFSET 0.000000 83.214638 0.000000
	CHANNELS 6 Xposition Yposition Zposition Xrotation Yrotation Zrotation
	JOINT Pelvis
	{
		OFFSET 0.000000 0.000000 0.000000
		CHANNELS 3 Xrotation Yrotation Zrotation
		JOINT LeftUpLeg
		{
			OFFSET 8.479700 -4.795502 -0.379100
			CHANNELS 3 Xrotation Yrotation Zrotation
			JOINT LeftLeg
			{
				OFFSET 0.024144 -32.555107 0.112900
				CHANNELS 3 Xrotation Yrotation Zrotation
				JOINT LeftFoot
				{
					OFFSET -0.024144 -32.638630 -3.012600
					CHANNELS 3 Xrotation Yrotation Zrotation
					JOINT LeftToeBase
					{
						OFFSET 0.970200 -13.225400 11.864200
						CHANNELS 3 Xrotation Yrotation Zrotation
						End Site
						{
							OFFSET 0.000000 12.319262 0.000000
						}
					}
					JOINT LFootTongue
					{
						OFFSET 1.142400 -1.059800 6.665200
						CHANNELS 3 Xrotation Yrotation Zrotation
						End Site
						{
							OFFSET 0.000000 12.319262 0.000000
						}
					}
				}
				JOINT LeftPantLeg
				{
					OFFSET 0.918482 -16.533964 -2.284700
					CHANNELS 3 Xrotation Yrotation Zrotation
					End Site
					{
						OFFSET 0.350399 24.744368 0.000000
					}
				}
			}
		}
		JOINT RightUpLeg
		{
			OFFSET -8.479700 -4.795502 -0.379100
			CHANNELS 3 Xrotation Yrotation Zrotation
			JOINT RightLeg
			{
				OFFSET -0.023144 -32.555092 0.112900
				CHANNELS 3 Xrotation Yrotation Zrotation
				JOINT RightFoot
				{
					OFFSET 0.023144 -32.638641 -3.012700
					CHANNELS 3 Xrotation Yrotation Zrotation
					JOINT RightToeBase
					{
						OFFSET -0.970200 -13.225400 11.864200
						CHANNELS 3 Xrotation Yrotation Zrotation
						End Site
						{
							OFFSET 0.000000 12.319244 0.000000
						}
					}
					JOINT RFootTongue
					{
						OFFSET -1.142200 -1.059800 6.665200
						CHANNELS 3 Xrotation Yrotation Zrotation
						End Site
						{
							OFFSET 0.000000 12.319243 0.000000
						}
					}
				}
				JOINT RightPantLeg
				{
					OFFSET -0.919482 -16.533978 -2.284800
					CHANNELS 3 Xrotation Yrotation Zrotation
					End Site
					{
						OFFSET -0.350400 24.744419 0.000000
					}
				}
			}
		}
	}
	JOINT Spine
	{
		OFFSET 0.000000 7.722000 1.166200
		CHANNELS 3 Xrotation Yrotation Zrotation
		JOINT Spine1
		{
			OFFSET 0.000000 12.024101 0.248800
			CHANNELS 3 Xrotation Yrotation Zrotation
			JOINT Spine2
			{
				OFFSET 0.000000 11.502998 -0.491200
				CHANNELS 3 Xrotation Yrotation Zrotation
				JOINT Neck
				{
					OFFSET 0.000000 18.430702 -3.123100
					CHANNELS 3 Xrotation Yrotation Zrotation
					JOINT Head
					{
						OFFSET 0.000000 9.051102 1.034000
						CHANNELS 3 Xrotation Yrotation Zrotation
						JOINT HairB
						{
							OFFSET 0.208400 24.786102 24.822300
							CHANNELS 3 Xrotation Yrotation Zrotation
							End Site
							{
								OFFSET 0.000000 32.263779 0.000000
							}
						}
						JOINT HairA
						{
							OFFSET -7.081100 24.428299 23.196600
							CHANNELS 3 Xrotation Yrotation Zrotation
							End Site
							{
								OFFSET 0.000000 32.263779 0.000000
							}
						}
						JOINT Hat
						{
							OFFSET 16.728800 15.048294 -15.439601
							CHANNELS 3 Xrotation Yrotation Zrotation
							End Site
							{
								OFFSET 0.000000 32.263779 0.000000
							}
						}
					}
				}
				JOINT LeftShoulder
				{
					OFFSET 6.197800 13.665199 -4.064700
					CHANNELS 3 Xrotation Yrotation Zrotation
					JOINT LeftArm
					{
						OFFSET 7.778100 -0.187103 -1.709300
						CHANNELS 3 Xrotation Yrotation Zrotation
						JOINT LeftForeArm
						{
							OFFSET 22.049376 0.000000 0.000000
							CHANNELS 3 Xrotation Yrotation Zrotation
							JOINT LeftHand
							{
								OFFSET 23.009392 0.000000 0.000000
								CHANNELS 3 Xrotation Yrotation Zrotation
								JOINT LeftHandThumb1
								{
									OFFSET 3.507191 -2.063065 3.133727
									CHANNELS 3 Xrotation Yrotation Zrotation
									JOINT LeftHandThumb2
									{
										OFFSET 3.101337 -1.790558 1.790558
										CHANNELS 3 Xrotation Yrotation Zrotation
										JOINT LeftHandThumb3
										{
											OFFSET 3.058640 -1.765907 1.765906
											CHANNELS 3 Xrotation Yrotation Zrotation
											End Site
											{
												OFFSET -0.415260 3.926476 -0.049563
											}
										}
									}
								}
								JOINT LeftHandIndex1
								{
									OFFSET 11.334419 -0.901459 3.706815
									CHANNELS 3 Xrotation Yrotation Zrotation
									JOINT LeftHandIndex2
									{
										OFFSET 3.283112 0.000000 0.000000
										CHANNELS 3 Xrotation Yrotation Zrotation
										JOINT LeftHandIndex3
										{
											OFFSET 3.323853 0.000000 0.000000
											CHANNELS 3 Xrotation Yrotation Zrotation
											End Site
											{
												OFFSET -1.135597 3.097809 0.402452
											}
										}
									}
								}
								JOINT LeftHandMiddle1
								{
									OFFSET 11.335861 0.000000 0.000000
									CHANNELS 3 Xrotation Yrotation Zrotation
									JOINT LeftHandMiddle2
									{
										OFFSET 3.410492 0.000000 0.000000
										CHANNELS 3 Xrotation Yrotation Zrotation
										JOINT LeftHandMiddle3
										{
											OFFSET 3.312172 0.000000 0.000000
											CHANNELS 3 Xrotation Yrotation Zrotation
											End Site
											{
												OFFSET -1.150200 3.080154 0.400270
											}
										}
									}
								}
								JOINT LeftHandRing1
								{
									OFFSET 11.514786 -0.013176 -3.003090
									CHANNELS 3 Xrotation Yrotation Zrotation
									JOINT LeftHandRing2
									{
										OFFSET 3.053307 0.000000 0.000000
										CHANNELS 3 Xrotation Yrotation Zrotation
										JOINT LeftHandRing3
										{
											OFFSET 3.295807 0.000000 0.000000
											CHANNELS 3 Xrotation Yrotation Zrotation
											End Site
											{
												OFFSET -1.281006 3.013344 0.375733
											}
										}
									}
								}
								JOINT LeftHandPinky1
								{
									OFFSET 10.518692 -0.960396 -5.730441
									CHANNELS 3 Xrotation Yrotation Zrotation
									JOINT LeftHandPinky2
									{
										OFFSET 2.861649 0.000000 0.000000
										CHANNELS 3 Xrotation Yrotation Zrotation
										JOINT LeftHandPinky3
										{
											OFFSET 2.863380 0.000000 0.000000
											CHANNELS 3 Xrotation Yrotation Zrotation
											End Site
											{
												OFFSET -0.843597 2.711159 0.369971
											}
										}
									}
								}
							}
							JOINT LSleeve
							{
								OFFSET 6.676277 -0.344902 -1.011730
								CHANNELS 3 Xrotation Yrotation Zrotation
								End Site
								{
									OFFSET 0.000000 14.885353 0.000000
								}
							}
						}
					}
				}
				JOINT RightShoulder
				{
					OFFSET -6.197800 13.665199 -4.064700
					CHANNELS 3 Xrotation Yrotation Zrotation
					JOINT RightArm
					{
						OFFSET -7.778100 -0.187103 -1.709300
						CHANNELS 3 Xrotation Yrotation Zrotation
						JOINT RightForeArm
						{
							OFFSET -22.049376 0.000000 0.000000
							CHANNELS 3 Xrotation Yrotation Zrotation
							JOINT RightHand
							{
								OFFSET -23.009392 0.000000 0.000000
								CHANNELS 3 Xrotation Yrotation Zrotation
								JOINT RightHandThumb1
								{
									OFFSET -3.507191 -2.063065 3.133727
									CHANNELS 3 Xrotation Yrotation Zrotation
									JOINT RightHandThumb2
									{
										OFFSET -3.101337 -1.790558 1.790558
										CHANNELS 3 Xrotation Yrotation Zrotation
										JOINT RightHandThumb3
										{
											OFFSET -3.058640 -1.765907 1.765906
											CHANNELS 3 Xrotation Yrotation Zrotation
											End Site
											{
												OFFSET 0.415260 3.926476 -0.049563
											}
										}
									}
								}
								JOINT RightHandIndex1
								{
									OFFSET -11.334419 -0.901459 3.706815
									CHANNELS 3 Xrotation Yrotation Zrotation
									JOINT RightHandIndex2
									{
										OFFSET -3.283112 0.000000 0.000000
										CHANNELS 3 Xrotation Yrotation Zrotation
										JOINT RightHandIndex3
										{
											OFFSET -3.323853 0.000000 0.000000
											CHANNELS 3 Xrotation Yrotation Zrotation
											End Site
											{
												OFFSET 1.135597 3.097809 0.402452
											}
										}
									}
								}
								JOINT RightHandMiddle1
								{
									OFFSET -11.335861 0.000000 0.000000
									CHANNELS 3 Xrotation Yrotation Zrotation
									JOINT RightHandMiddle2
									{
										OFFSET -3.410492 0.000000 0.000000
										CHANNELS 3 Xrotation Yrotation Zrotation
										JOINT RightHandMiddle3
										{
											OFFSET -3.312172 0.000000 0.000000
											CHANNELS 3 Xrotation Yrotation Zrotation
											End Site
											{
												OFFSET 1.150200 3.080154 0.400270
											}
										}
									}
								}
								JOINT RightHandRing1
								{
									OFFSET -11.514786 -0.013176 -3.003090
									CHANNELS 3 Xrotation Yrotation Zrotation
									JOINT RightHandRing2
									{
										OFFSET -3.053307 0.000000 0.000000
										CHANNELS 3 Xrotation Yrotation Zrotation
										JOINT RightHandRing3
										{
											OFFSET -3.295807 0.000000 0.000000
											CHANNELS 3 Xrotation Yrotation Zrotation
											End Site
											{
												OFFSET 1.281006 3.013344 0.375733
											}
										}
									}
								}
								JOINT RightHandPinky1
								{
									OFFSET -10.518692 -0.960396 -5.730441
									CHANNELS 3 Xrotation Yrotation Zrotation
									JOINT RightHandPinky2
									{
										OFFSET -2.861649 0.000000 0.000000
										CHANNELS 3 Xrotation Yrotation Zrotation
										JOINT RightHandPinky3
										{
											OFFSET -2.863380 0.000000 0.000000
											CHANNELS 3 Xrotation Yrotation Zrotation
											End Site
											{
												OFFSET 0.843597 2.711159 0.369971
											}
										}
									}
								}
							}
							JOINT RSleeve
							{
								OFFSET -6.676277 -0.344902 -1.011730
								CHANNELS 3 Xrotation Yrotation Zrotation
								End Site
								{
									OFFSET 0.000000 14.885353 0.000000
								}
							}
						}
					}
				}
				JOINT Backpack
				{
					OFFSET 0.000000 -2.471497 36.677502
					CHANNELS 3 Xrotation Yrotation Zrotation
					End Site
					{
						OFFSET 0.000000 20.427315 0.000000
					}
				}
				JOINT Hood
				{
					OFFSET 0.000000 18.754097 -10.431000
					CHANNELS 3 Xrotation Yrotation Zrotation
					JOINT Hood1
					{
						OFFSET 0.000000 -5.011002 -7.685901
						CHANNELS 3 Xrotation Yrotation Zrotation
						End Site
						{
							OFFSET 0.000000 9.175140 0.000000
						}
					}
				}
				JOINT LHoodieString
				{
					OFFSET 5.250500 16.397697 3.089900
					CHANNELS 3 Xrotation Yrotation Zrotation
					JOINT LHoodieString1
					{
						OFFSET 0.257700 -6.364304 3.694600
						CHANNELS 3 Xrotation Yrotation Zrotation
						JOINT LHoodieString2
						{
							OFFSET 0.000000 -9.643799 2.679100
							CHANNELS 3 Xrotation Yrotation Zrotation
							End Site
							{
								OFFSET 0.000000 10.009018 0.000000
							}
						}
					}
				}
				JOINT RHoodieString
				{
					OFFSET -5.250500 16.397697 3.089900
					CHANNELS 3 Xrotation Yrotation Zrotation
					JOINT RHoodieString1
					{
						OFFSET -0.257700 -6.364304 3.694600
						CHANNELS 3 Xrotation Yrotation Zrotation
						JOINT RHoodieString2
						{
							OFFSET 0.000000 -9.643799 2.679100
							CHANNELS 3 Xrotation Yrotation Zrotation
							End Site
							{
								OFFSET 0.000000 10.009018 0.000000
							}
						}
					}
				}
			}
			JOINT LBackpack_Strap
			{
				OFFSET 15.223200 -7.719803 -6.610900
				CHANNELS 3 Xrotation Yrotation Zrotation
				End Site
				{
					OFFSET 0.000000 16.040596 0.000000
				}
			}
			JOINT RBackpack_Strap
			{
				OFFSET -15.223000 -7.719803 -6.610900
				CHANNELS 3 Xrotation Yrotation Zrotation
				End Site
				{
					OFFSET 0.000000 16.040596 0.000000
				}
			}
		}
	}
	JOINT BoyFacialAnim_Joint
	{
		OFFSET 1.000000 -82.208099 -1.550900
		CHANNELS 3 Xrotation Yrotation Zrotation
		End Site
		{
			OFFSET 0.000000 30.012791 0.000000
		}
	}
}
MOTION
Frames: 4
Frame Time: 0.033333
-7.042019 77.263016 -0.720678 -5.776320 -39.634355 -3.545381 -0.000000 0.000001 0.000000 -27.324991 5.711064 13.933717 33.960131 -14.110928 -0.201465 -4.092902 0.706222 -8.143559 -0.000000 -0.000002 -0.000000 -0.000000 -0.000002 -0.000000 -0.000000 -0.000003 0.000000 -4.368583 -13.685404 -15.656812 32.702570 -9.020035 -0.425638 -20.500999 -4.052705 17.150750 -0.000000 0.000001 0.000000 -0.000000 0.000001 0.000000 0.000003 0.000002 -0.000001 5.833957 4.645128 -1.245091 11.836534 9.037603 -3.083967 11.836542 9.037611 -3.083969 -4.303042 -1.272918 0.206305 -6.271931 20.437794 -0.377164 0.000000 0.000000 -0.000000 0.000000 0.000000 -0.000000 0.000000 0.000000 -0.000000 1.392480 -0.696036 -7.877853 -14.260101 2.394320 -63.277099 9.865051 -47.524907 5.927914 16.172860 0.915189 18.795473 9.163539 4.814119 -5.499037 -0.335413 0.032577 0.783727 0.000002 -0.000003 -0.000001 -0.902000 -6.980946 -3.808391 0.033454 0.804259 -16.418923 -0.000004 0.000000 -0.000005 1.947883 9.683081 -14.539767 -0.458776 -1.564945 -21.880984 0.000002 0.000000 0.000000 2.605935 14.896805 -31.345237 -0.579663 -2.711659 -32.011580 -0.000000 0.000001 -0.000002 4.170641 18.494981 -34.987313 -0.706755 -5.788611 -39.372844 -0.000003 0.000002 0.000002 -0.000003 0.000001 -0.000000 1.410948 9.461516 9.792739 1.220047 -24.270717 60.532900 -6.660701 41.858398 8.043862 6.225248 12.322347 11.673316 -8.895778 -4.903173 -0.383721 7.904913 -19.192499 -2.856849 0.000000 0.000000 -0.000001 -1.085545 -1.215477 4.525411 0.142040 -1.115563 16.942783 0.000000 0.000000 0.000002 -0.663662 -2.903890 12.731655 -0.660595 1.813458 30.579081 0.000000 0.000000 -0.000000 2.423594 -7.404551 21.763252 -0.989745 3.764359 37.431165 -0.000000 -0.000000 0.000000 3.480987 -10.055074 24.322602 -1.458371 7.872052 41.091928 -0.000002 -0.000005 0.000001 0.000001 0.000000 -0.000000 0.000001 0.000000 -0.000000 0.000001 0.000000 -0.000000 0.000001 0.000000 -0.000000 0.000001 0.000000 -0.000000 0.000001 0.000000 -0.000000 -0.000001 -0.000001 0.000000 0.000001 0.000000 -0.000000 0.000001 0.000000 -0.000000 -0.000001 -0.000001 0.000000 0.000001 0.000000 -0.000000 0.000001 0.000000 -0.000000 -0.000000 0.000001 0.000000 
-5.961051 76.952629 -1.770162 -5.014750 -38.138748 0.608626 0.000000 0.000001 -0.000000 -34.891755 3.815494 12.497419 42.425495 -12.598858 -3.669387 2.110939 -0.725462 -8.215959 -0.000000 0.000001 -0.000000 -0.000000 0.000001 -0.000000 0.000000 -0.000001 -0.000000 -15.155261 -12.655047 -25.352320 48.033572 -1.191327 9.419125 -21.233596 -4.617058 12.584663 0.000000 -0.000001 -0.000000 0.000000 -0.000001 -0.000000 -0.000001 -0.000000 0.000000 6.355205 3.940064 -1.615840 12.864474 7.540595 -3.712563 12.864471 7.540592 -3.712558 2.142104 0.778796 -0.247266 -7.286821 20.617698 -3.861018 0.000000 0.000000 -0.000000 0.000000 0.000000 -0.000000 0.000000 0.000000 -0.000000 -0.090028 9.330241 -5.086106 -11.778358 15.927298 -43.348520 -4.861452 -55.855125 -2.516456 2.330004 -1.608599 32.995770 5.747637 3.457728 -3.217881 0.397670 1.827473 1.182276 -0.000000 -0.000001 0.000001 -0.972108 -6.343884 -8.428089 -0.094253 0.411375 -19.866152 -0.000002 0.000002 -0.000003 1.662592 6.824668 -17.244102 -0.472241 -1.592323 -22.148596 -0.000001 -0.000000 0.000000 1.842647 12.925692 -30.756564 -0.512964 -2.625235 -30.265101 -0.000001 -0.000006 0.000000 3.068921 17.725806 -32.047289 -0.691340 -5.770290 -38.201583 0.000002 0.000004 0.000000 0.000001 -0.000001 -0.000000 1.437848 2.186292 5.428160 -5.242896 -28.422739 39.969639 -16.760729 37.439979 7.901288 -5.813985 12.901088 6.877313 -4.552409 -4.144988 1.660570 6.986108 -17.166074 -2.834675 0.000002 0.000001 -0.000001 -0.831489 0.243851 8.221996 0.061425 -0.861031 19.592724 0.000000 -0.000001 0.000005 -0.795157 -2.127620 15.277352 -0.545112 1.596614 27.843949 -0.000001 0.000001 0.000002 2.051952 -7.465982 23.144765 -0.800167 3.485459 33.536963 -0.000002 0.000003 0.000001 3.362981 -11.295255 23.816829 -1.341538 7.729571 38.704647 -0.000001 0.000000 0.000000 0.000002 0.000001 -0.000001 0.000001 0.000000 -0.000001 0.000001 0.000000 -0.000001 0.000001 0.000000 -0.000001 0.000001 0.000000 -0.000001 0.000001 0.000000 -0.000000 0.000001 -0.000001 -0.000001 0.000001 0.000000 -0.000001 0.000001 0.000000 -0.000000 0.000001 -0.000001 -0.000001 0.000001 -0.000002 0.000000 0.000001 -0.000002 0.000000 0.000000 0.000001 -0.000000 
-4.314747 76.321129 -2.836471 -2.139985 -38.361740 5.467862 -0.000000 0.000003 -0.000000 -47.712399 2.867269 10.652547 56.210507 -10.151444 -3.739141 9.279294 -0.631371 -11.092849 0.000001 0.000002 -0.000000 0.000001 0.000002 -0.000000 0.000000 0.000003 0.000001 -31.379706 -9.908821 -32.843941 63.475496 8.109902 13.906612 -15.643396 -4.063820 9.712588 0.000000 0.000001 -0.000000 0.000000 0.000001 -0.000000 -0.000001 0.000001 -0.000001 6.924522 3.030509 -1.817901 13.977275 5.585603 -4.165556 13.977268 5.585605 -4.165557 9.121073 2.929100 -1.193513 -8.682086 20.658787 -6.087042 -0.000000 0.000000 -0.000000 -0.000000 0.000000 -0.000000 -0.000000 0.000000 -0.000000 -1.354163 16.561952 -2.952037 -14.521935 25.968137 -16.645516 -21.914657 -59.354501 -20.125731 -10.126465 -3.756134 43.708091 2.952596 1.937185 -1.506445 1.087583 3.546432 1.549047 -0.000000 -0.000000 0.000003 -1.122628 -5.742518 -13.588461 -0.274971 -0.041595 -23.920140 -0.000001 0.000003 -0.000001 1.117180 4.074417 -20.590888 -0.522012 -1.697131 -23.163796 0.000001 -0.000003 -0.000000 1.162542 10.993002 -30.966763 -0.480036 -2.580099 -29.359254 0.000004 -0.000005 -0.000003 2.200478 16.966871 -30.063300 -0.687255 -5.765432 -37.846334 0.000000 0.000002 0.000002 -0.000000 -0.000001 0.000000 0.427094 -4.684283 2.591681 -18.485487 -27.466141 13.980910 -28.899511 35.506639 9.057259 -17.598457 14.234639 -4.889746 -0.313609 -3.038660 4.278620 6.138381 -15.279364 -2.785466 -0.000001 -0.000000 0.000001 -0.972797 1.683798 12.130911 -0.039556 -0.589977 22.462156 -0.000001 0.000000 0.000002 -0.990349 -1.375475 18.048302 -0.457460 1.412172 25.568772 0.000005 0.000002 -0.000004 1.799328 -7.535518 24.824423 -0.652116 3.233345 30.155927 -0.000002 0.000001 0.000001 3.392587 -12.566152 23.726655 -1.248990 7.611203 36.764040 0.000001 -0.000001 -0.000002 -0.000001 -0.000000 0.000000 -0.000000 -0.000001 0.000001 -0.000000 -0.000001 0.000001 -0.000000 -0.000001 0.000001 -0.000000 -0.000001 0.000001 -0.000000 -0.000001 -0.000000 -0.000000 -0.000001 -0.000000 -0.000000 -0.000001 0.000001 -0.000000 -0.000001 -0.000000 -0.000000 -0.000001 -0.000000 0.000001 0.000002 -0.000001 0.000001 0.000002 -0.000001 -0.000000 0.000003 -0.000000 
-3.129768 75.386383 -4.038972 -1.232140 -38.628104 9.565727 -0.000000 -0.000001 0.000000 -59.809699 4.144947 8.042216 70.642679 -6.549802 -0.653709 15.925131 -0.941711 -16.412622 -0.000001 0.000002 -0.000000 -0.000001 0.000002 -0.000001 0.000001 -0.000006 0.000001 -47.274782 -6.064965 -37.952257 78.556772 14.314438 14.544072 -4.818855 -2.470680 8.049435 0.000000 0.000003 -0.000000 0.000000 0.000003 -0.000000 0.000003 -0.000001 0.000000 7.766958 1.971441 -2.303652 15.616075 3.329450 -4.939049 15.616077 3.329459 -4.939054 14.023132 4.275263 -2.318466 -8.523636 19.458323 -7.008274 0.000000 0.000000 0.000000 0.000000 0.000000 0.000000 0.000000 0.000000 0.000000 -2.799887 19.487336 0.289784 -17.609809 27.625902 4.265240 -27.821686 -56.066824 -29.581081 -16.218919 -5.655358 47.262993 1.797945 1.060363 -0.852965 1.458489 4.475704 1.741849 -0.000003 -0.000004 -0.000001 -1.210575 -5.427203 -16.900741 -0.415495 -0.339994 -26.651256 -0.000002 0.000003 -0.000001 0.528221 2.618754 -22.941405 -0.575743 -1.808763 -24.250616 0.000001 -0.000003 -0.000002 0.690776 9.952798 -31.598777 -0.476343 -2.585071 -29.409367 -0.000001 0.000001 0.000002 1.754872 16.613848 -29.542918 -0.692619 -5.771977 -38.195200 -0.000000 -0.000000 -0.000000 -0.000000 -0.000003 0.000000 -1.093029 -9.971009 0.468319 -29.051612 -19.127532 -4.315465 -35.589363 33.856271 10.196293 -22.115102 14.380818 -16.133241 2.090258 -2.048485 6.298003 5.723434 -14.345730 -2.753493 0.000001 0.000002 -0.000000 -1.319758 2.470130 14.573761 -0.111425 -0.418149 24.308587 0.000001 -0.000001 0.000003 -1.155674 -0.963512 19.841863 -0.425415 1.334879 24.633432 -0.000000 0.000002 -0.000003 1.730437 -7.581779 26.042094 -0.590508 3.114470 28.623663 0.000000 0.000002 -0.000001 3.533716 -13.317377 24.015825 -1.212272 7.563772 36.011578 0.000001 -0.000001 0.000000 -0.000002 0.000001 -0.000001 0.000001 0.000001 -0.000001 0.000001 0.000001 -0.000001 0.000001 0.000001 -0.000001 0.000001 0.000001 -0.000001 0.000001 0.000001 -0.000001 -0.000002 0.000001 -0.000000 0.000001 0.000001 -0.000001 0.000001 0.000001 -0.000001 -0.000002 0.000001 -0.000000 0.000002 0.000001 -0.000000 0.000002 0.000001 -0.000000 -0.000000 -0.000001 0.000000 
